<svg xmlns="http://www.w3.org/2000/svg" xmlns:xlink="http://www.w3.org/1999/xlink" width="500" zoomAndPan="magnify" viewBox="0 0 375 374.999991" height="500" preserveAspectRatio="xMidYMid meet" version="1.0"><defs><g/></defs><rect x="-37.5" width="450" fill="#ffffff" y="-37.499999" height="449.999989" fill-opacity="1"/><rect x="-37.5" width="450" fill="#020f1f" y="-37.499999" height="449.999989" fill-opacity="1"/><g fill="#ffffff" fill-opacity="1"><g transform="translate(89.095644, 195.758901)"><g><path d="M 15.140625 0.359375 C 13.566406 0.359375 12.070312 0.0625 10.65625 -0.53125 C 9.25 -1.132812 8.015625 -1.972656 6.953125 -3.046875 C 5.878906 -4.109375 5.046875 -5.335938 4.453125 -6.734375 C 3.859375 -8.140625 3.5625 -9.640625 3.5625 -11.234375 L 3.5625 -37.5625 C 3.5625 -38.332031 3.828125 -38.976562 4.359375 -39.5 C 4.890625 -40.03125 5.539062 -40.296875 6.3125 -40.296875 C 7.082031 -40.296875 7.738281 -40.03125 8.28125 -39.5 C 8.820312 -38.976562 9.09375 -38.332031 9.09375 -37.5625 L 9.09375 -11.4375 C 9.09375 -9.75 9.679688 -8.316406 10.859375 -7.140625 C 11.410156 -6.585938 12.054688 -6.15625 12.796875 -5.84375 C 13.535156 -5.53125 14.320312 -5.375 15.15625 -5.375 C 16.851562 -5.375 18.289062 -5.960938 19.46875 -7.140625 C 20.03125 -7.710938 20.460938 -8.359375 20.765625 -9.078125 C 21.078125 -9.796875 21.234375 -10.570312 21.234375 -11.40625 L 21.234375 -37.53125 C 21.234375 -38.300781 21.5 -38.953125 22.03125 -39.484375 C 22.5625 -40.023438 23.210938 -40.296875 23.984375 -40.296875 C 24.773438 -40.296875 25.4375 -40.023438 25.96875 -39.484375 C 26.507812 -38.953125 26.78125 -38.300781 26.78125 -37.53125 L 26.78125 -11.40625 C 26.78125 -10.570312 26.929688 -9.789062 27.234375 -9.0625 C 27.546875 -8.332031 27.976562 -7.691406 28.53125 -7.140625 C 29.070312 -6.566406 29.703125 -6.128906 30.421875 -5.828125 C 31.148438 -5.523438 31.929688 -5.375 32.765625 -5.375 C 33.597656 -5.375 34.382812 -5.53125 35.125 -5.84375 C 35.875 -6.15625 36.519531 -6.585938 37.0625 -7.140625 C 37.632812 -7.691406 38.078125 -8.332031 38.390625 -9.0625 C 38.710938 -9.789062 38.875 -10.570312 38.875 -11.40625 L 38.875 -37.5625 C 38.875 -38.332031 39.144531 -38.976562 39.6875 -39.5 C 40.238281 -40.03125 40.898438 -40.296875 41.671875 -40.296875 C 42.453125 -40.296875 43.109375 -40.03125 43.640625 -39.5 C 44.179688 -38.976562 44.453125 -38.332031 44.453125 -37.5625 L 44.453125 -11.234375 C 44.453125 -9.660156 44.148438 -8.164062 43.546875 -6.75 C 42.953125 -5.34375 42.125 -4.109375 41.0625 -3.046875 C 39.988281 -1.972656 38.734375 -1.132812 37.296875 -0.53125 C 35.859375 0.0625 34.359375 0.359375 32.796875 0.359375 C 31.046875 0.359375 29.410156 -0.00390625 27.890625 -0.734375 C 26.378906 -1.460938 25.085938 -2.476562 24.015625 -3.78125 C 22.890625 -2.476562 21.5625 -1.460938 20.03125 -0.734375 C 18.507812 -0.00390625 16.878906 0.359375 15.140625 0.359375 Z M 15.140625 0.359375 "/></g></g></g><g fill="#ffffff" fill-opacity="1"><g transform="translate(134.588385, 195.758901)"><g><path d="M 16.296875 0.359375 C 14.273438 0.359375 12.347656 -0.0234375 10.515625 -0.796875 C 8.691406 -1.566406 7.097656 -2.632812 5.734375 -4 C 4.347656 -5.363281 3.269531 -6.953125 2.5 -8.765625 C 1.726562 -10.585938 1.34375 -12.503906 1.34375 -14.515625 C 1.34375 -16.554688 1.726562 -18.484375 2.5 -20.296875 C 3.269531 -22.117188 4.347656 -23.710938 5.734375 -25.078125 C 7.097656 -26.441406 8.691406 -27.507812 10.515625 -28.28125 C 12.347656 -29.050781 14.273438 -29.4375 16.296875 -29.4375 C 18.285156 -29.4375 20.191406 -29.054688 22.015625 -28.296875 C 23.835938 -27.535156 25.4375 -26.472656 26.8125 -25.109375 C 28.175781 -23.742188 29.25 -22.15625 30.03125 -20.34375 C 30.820312 -18.539062 31.226562 -16.640625 31.25 -14.640625 C 31.25 -13.910156 31.003906 -13.300781 30.515625 -12.8125 C 30.023438 -12.320312 29.394531 -12.078125 28.625 -12.078125 L 7.328125 -12.078125 C 7.546875 -11.046875 7.929688 -10.09375 8.484375 -9.21875 C 9.035156 -8.34375 9.707031 -7.566406 10.5 -6.890625 C 12.164062 -5.515625 14.097656 -4.828125 16.296875 -4.828125 C 17.304688 -4.828125 18.160156 -4.914062 18.859375 -5.09375 C 19.566406 -5.28125 20.273438 -5.585938 20.984375 -6.015625 C 21.554688 -6.335938 22.097656 -6.5 22.609375 -6.5 C 23.296875 -6.5 23.914062 -6.222656 24.46875 -5.671875 C 25 -5.109375 25.265625 -4.445312 25.265625 -3.6875 C 25.265625 -2.445312 24.367188 -1.453125 22.578125 -0.703125 C 21.765625 -0.359375 20.8125 -0.0976562 19.71875 0.078125 C 18.632812 0.265625 17.492188 0.359375 16.296875 0.359375 Z M 7.171875 -16.59375 L 25.71875 -16.59375 C 25.332031 -18.832031 24.273438 -20.664062 22.546875 -22.09375 C 21.710938 -22.78125 20.765625 -23.316406 19.703125 -23.703125 C 18.648438 -24.085938 17.546875 -24.28125 16.390625 -24.28125 C 13.960938 -24.28125 11.914062 -23.539062 10.25 -22.0625 C 9.4375 -21.363281 8.765625 -20.539062 8.234375 -19.59375 C 7.703125 -18.65625 7.347656 -17.65625 7.171875 -16.59375 Z M 7.171875 -16.59375 "/></g></g></g><g fill="#ffffff" fill-opacity="1"><g transform="translate(164.673558, 195.758901)"><g><path d="M 17.640625 0.328125 C 15.617188 0.328125 13.695312 -0.0546875 11.875 -0.828125 C 10.0625 -1.597656 8.472656 -2.664062 7.109375 -4.03125 C 5.722656 -5.394531 4.644531 -6.976562 3.875 -8.78125 C 3.101562 -10.59375 2.71875 -12.503906 2.71875 -14.515625 L 2.71875 -37.40625 C 2.71875 -38.132812 2.984375 -38.796875 3.515625 -39.390625 C 4.035156 -39.921875 4.675781 -40.1875 5.4375 -40.1875 C 6.207031 -40.1875 6.835938 -39.921875 7.328125 -39.390625 C 7.828125 -38.859375 8.078125 -38.195312 8.078125 -37.40625 L 8.078125 -23.734375 C 8.835938 -25.398438 10.113281 -26.765625 11.90625 -27.828125 C 12.757812 -28.335938 13.675781 -28.734375 14.65625 -29.015625 C 15.644531 -29.296875 16.640625 -29.4375 17.640625 -29.4375 C 19.648438 -29.4375 21.5625 -29.050781 23.375 -28.28125 C 25.195312 -27.507812 26.789062 -26.441406 28.15625 -25.078125 C 29.519531 -23.691406 30.582031 -22.09375 31.34375 -20.28125 C 32.113281 -18.476562 32.5 -16.554688 32.5 -14.515625 C 32.5 -12.503906 32.113281 -10.59375 31.34375 -8.78125 C 30.582031 -6.976562 29.519531 -5.394531 28.15625 -4.03125 C 26.789062 -2.664062 25.195312 -1.597656 23.375 -0.828125 C 21.5625 -0.0546875 19.648438 0.328125 17.640625 0.328125 Z M 17.640625 -5.0625 C 18.941406 -5.0625 20.171875 -5.304688 21.328125 -5.796875 C 22.484375 -6.285156 23.5 -6.96875 24.375 -7.84375 C 25.25 -8.71875 25.925781 -9.726562 26.40625 -10.875 C 26.882812 -12.019531 27.125 -13.234375 27.125 -14.515625 C 27.125 -15.816406 26.882812 -17.039062 26.40625 -18.1875 C 25.925781 -19.34375 25.25 -20.359375 24.375 -21.234375 C 23.5 -22.109375 22.484375 -22.785156 21.328125 -23.265625 C 20.171875 -23.742188 18.941406 -23.984375 17.640625 -23.984375 C 16.335938 -23.984375 15.101562 -23.742188 13.9375 -23.265625 C 12.78125 -22.785156 11.765625 -22.109375 10.890625 -21.234375 C 10.015625 -20.359375 9.332031 -19.34375 8.84375 -18.1875 C 8.351562 -17.039062 8.109375 -15.816406 8.109375 -14.515625 C 8.109375 -13.234375 8.351562 -12.019531 8.84375 -10.875 C 9.332031 -9.726562 10.015625 -8.71875 10.890625 -7.84375 C 11.765625 -6.96875 12.78125 -6.285156 13.9375 -5.796875 C 15.101562 -5.304688 16.335938 -5.0625 17.640625 -5.0625 Z M 17.640625 -5.0625 "/></g></g></g><g fill="#ffffff" fill-opacity="1"><g transform="translate(196.009648, 195.758901)"><g><path d="M 5.859375 -33.046875 C 5.023438 -33.046875 4.300781 -33.347656 3.6875 -33.953125 C 3.082031 -34.566406 2.78125 -35.28125 2.78125 -36.09375 C 2.78125 -36.925781 3.082031 -37.648438 3.6875 -38.265625 C 4.28125 -38.847656 5.003906 -39.140625 5.859375 -39.140625 C 6.648438 -39.140625 7.375 -38.847656 8.03125 -38.265625 C 8.632812 -37.691406 8.9375 -36.96875 8.9375 -36.09375 C 8.9375 -35.257812 8.632812 -34.546875 8.03125 -33.953125 C 7.394531 -33.347656 6.671875 -33.046875 5.859375 -33.046875 Z M 5.859375 0.21875 C 5.109375 0.21875 4.460938 -0.0390625 3.921875 -0.5625 C 3.378906 -1.082031 3.109375 -1.71875 3.109375 -2.46875 L 3.109375 -26.734375 C 3.109375 -27.503906 3.382812 -28.144531 3.9375 -28.65625 C 4.46875 -29.175781 5.117188 -29.4375 5.890625 -29.4375 C 6.617188 -29.4375 7.238281 -29.171875 7.75 -28.640625 C 8.257812 -28.117188 8.515625 -27.484375 8.515625 -26.734375 L 8.515625 -2.46875 C 8.515625 -1.71875 8.253906 -1.082031 7.734375 -0.5625 C 7.210938 -0.0390625 6.585938 0.21875 5.859375 0.21875 Z M 5.859375 0.21875 "/></g></g></g><g fill="#ffffff" fill-opacity="1"><g transform="translate(205.195461, 195.758901)"><g><path d="M 4.875 0 C 4.101562 0 3.460938 -0.253906 2.953125 -0.765625 C 2.390625 -1.273438 2.109375 -1.90625 2.109375 -2.65625 L 2.109375 -15.078125 C 2.109375 -17.023438 2.460938 -18.875 3.171875 -20.625 C 3.878906 -22.375 4.875 -23.910156 6.15625 -25.234375 C 7.457031 -26.554688 8.960938 -27.585938 10.671875 -28.328125 C 12.378906 -29.066406 14.203125 -29.4375 16.140625 -29.4375 C 18.085938 -29.4375 19.921875 -29.066406 21.640625 -28.328125 C 23.359375 -27.585938 24.878906 -26.554688 26.203125 -25.234375 C 27.484375 -23.910156 28.476562 -22.375 29.1875 -20.625 C 29.90625 -18.875 30.265625 -17.023438 30.265625 -15.078125 L 30.265625 -2.65625 C 30.265625 -1.882812 30.007812 -1.25 29.5 -0.75 C 28.988281 -0.25 28.359375 0 27.609375 0 C 26.859375 0 26.21875 -0.25 25.6875 -0.75 C 25.15625 -1.25 24.890625 -1.882812 24.890625 -2.65625 L 24.890625 -15.015625 C 24.867188 -16.234375 24.640625 -17.390625 24.203125 -18.484375 C 23.765625 -19.585938 23.148438 -20.546875 22.359375 -21.359375 C 21.546875 -22.191406 20.601562 -22.84375 19.53125 -23.3125 C 18.46875 -23.78125 17.335938 -24.015625 16.140625 -24.015625 C 13.660156 -24.015625 11.609375 -23.148438 9.984375 -21.421875 C 9.179688 -20.609375 8.566406 -19.648438 8.140625 -18.546875 C 7.710938 -17.453125 7.5 -16.296875 7.5 -15.078125 L 7.5 -2.65625 C 7.5 -1.882812 7.25 -1.25 6.75 -0.75 C 6.257812 -0.25 5.632812 0 4.875 0 Z M 4.875 0 "/></g></g></g><g fill="#ffffff" fill-opacity="1"><g transform="translate(235.890834, 195.758901)"><g><path d="M 16.234375 0.359375 C 14.210938 0.359375 12.304688 -0.0195312 10.515625 -0.78125 C 8.734375 -1.539062 7.160156 -2.613281 5.796875 -4 C 4.429688 -5.363281 3.367188 -6.945312 2.609375 -8.75 C 1.847656 -10.5625 1.46875 -12.484375 1.46875 -14.515625 C 1.46875 -16.554688 1.847656 -18.476562 2.609375 -20.28125 C 3.367188 -22.09375 4.429688 -23.691406 5.796875 -25.078125 C 7.160156 -26.460938 8.734375 -27.535156 10.515625 -28.296875 C 12.304688 -29.054688 14.210938 -29.4375 16.234375 -29.4375 C 18.242188 -29.4375 20.140625 -29.0625 21.921875 -28.3125 C 23.703125 -27.5625 25.273438 -26.503906 26.640625 -25.140625 C 27.984375 -23.773438 29.035156 -22.195312 29.796875 -20.40625 C 30.554688 -18.613281 30.957031 -16.710938 31 -14.703125 L 31 -2.5625 C 31 -1.789062 30.734375 -1.132812 30.203125 -0.59375 C 29.671875 -0.0507812 29.019531 0.21875 28.25 0.21875 C 27.476562 0.21875 26.847656 -0.046875 26.359375 -0.578125 C 25.867188 -1.109375 25.625 -1.769531 25.625 -2.5625 L 25.59375 -2.984375 C 24.289062 -1.910156 22.84375 -1.082031 21.25 -0.5 C 19.65625 0.0703125 17.984375 0.359375 16.234375 0.359375 Z M 16.234375 -5.03125 C 17.554688 -5.03125 18.785156 -5.273438 19.921875 -5.765625 C 21.054688 -6.253906 22.0625 -6.945312 22.9375 -7.84375 C 23.789062 -8.71875 24.453125 -9.726562 24.921875 -10.875 C 25.390625 -12.019531 25.625 -13.234375 25.625 -14.515625 C 25.625 -15.796875 25.390625 -17.007812 24.921875 -18.15625 C 24.453125 -19.3125 23.789062 -20.328125 22.9375 -21.203125 C 22.0625 -22.078125 21.050781 -22.757812 19.90625 -23.25 C 18.757812 -23.738281 17.535156 -23.984375 16.234375 -23.984375 C 14.929688 -23.984375 13.707031 -23.738281 12.5625 -23.25 C 11.425781 -22.757812 10.429688 -22.078125 9.578125 -21.203125 C 8.722656 -20.328125 8.054688 -19.3125 7.578125 -18.15625 C 7.097656 -17.007812 6.859375 -15.796875 6.859375 -14.515625 C 6.859375 -13.234375 7.097656 -12.019531 7.578125 -10.875 C 8.054688 -9.726562 8.722656 -8.71875 9.578125 -7.84375 C 10.429688 -6.945312 11.425781 -6.253906 12.5625 -5.765625 C 13.707031 -5.273438 14.929688 -5.03125 16.234375 -5.03125 Z M 16.234375 -5.03125 "/></g></g></g><g fill="#ffffff" fill-opacity="1"><g transform="translate(267.226924, 195.758901)"><g><path d="M 17.671875 0.359375 C 15.609375 0.359375 13.671875 -0.0078125 11.859375 -0.75 C 10.054688 -1.488281 8.472656 -2.53125 7.109375 -3.875 C 5.722656 -5.238281 4.644531 -6.8125 3.875 -8.59375 C 3.101562 -10.382812 2.71875 -12.300781 2.71875 -14.34375 L 2.71875 -35.546875 C 2.71875 -36.296875 2.992188 -36.945312 3.546875 -37.5 C 4.066406 -38.03125 4.695312 -38.296875 5.4375 -38.296875 C 6.1875 -38.296875 6.84375 -38.03125 7.40625 -37.5 C 7.957031 -36.945312 8.234375 -36.296875 8.234375 -35.546875 L 8.234375 -29.5625 L 20.34375 -29.5625 C 21.101562 -29.5625 21.742188 -29.289062 22.265625 -28.75 C 22.796875 -28.21875 23.0625 -27.570312 23.0625 -26.8125 C 23.0625 -26.082031 22.800781 -25.46875 22.28125 -24.96875 C 21.769531 -24.46875 21.125 -24.21875 20.34375 -24.21875 L 8.234375 -24.21875 L 8.234375 -14.28125 C 8.234375 -13 8.472656 -11.789062 8.953125 -10.65625 C 9.429688 -9.53125 10.109375 -8.539062 10.984375 -7.6875 C 11.835938 -6.832031 12.835938 -6.171875 13.984375 -5.703125 C 15.140625 -5.234375 16.367188 -5 17.671875 -5 C 20.148438 -5 22.179688 -5.734375 23.765625 -7.203125 C 24.421875 -7.804688 25.101562 -8.109375 25.8125 -8.109375 C 26.425781 -8.109375 26.992188 -7.875 27.515625 -7.40625 C 28.003906 -6.925781 28.25 -6.328125 28.25 -5.609375 C 28.25 -4.710938 27.925781 -3.941406 27.28125 -3.296875 C 24.71875 -0.859375 21.515625 0.359375 17.671875 0.359375 Z M 17.671875 0.359375 "/></g></g></g><g fill="#ffffff" fill-opacity="1"><g transform="translate(293.68141, 195.758901)"><g><path d="M 16.234375 0.359375 C 14.210938 0.359375 12.300781 -0.0195312 10.5 -0.78125 C 8.707031 -1.539062 7.117188 -2.613281 5.734375 -4 C 4.347656 -5.363281 3.269531 -6.953125 2.5 -8.765625 C 1.726562 -10.585938 1.34375 -12.503906 1.34375 -14.515625 C 1.34375 -16.535156 1.726562 -18.453125 2.5 -20.265625 C 3.269531 -22.085938 4.347656 -23.691406 5.734375 -25.078125 C 7.117188 -26.460938 8.707031 -27.535156 10.5 -28.296875 C 12.300781 -29.054688 14.210938 -29.4375 16.234375 -29.4375 C 18.265625 -29.4375 20.191406 -29.050781 22.015625 -28.28125 C 23.835938 -27.507812 25.425781 -26.441406 26.78125 -25.078125 C 28.144531 -23.691406 29.207031 -22.09375 29.96875 -20.28125 C 30.738281 -18.476562 31.125 -16.554688 31.125 -14.515625 C 31.125 -12.484375 30.738281 -10.5625 29.96875 -8.75 C 29.207031 -6.945312 28.144531 -5.363281 26.78125 -4 C 25.425781 -2.632812 23.835938 -1.566406 22.015625 -0.796875 C 20.191406 -0.0234375 18.265625 0.359375 16.234375 0.359375 Z M 16.234375 -5.03125 C 17.554688 -5.03125 18.789062 -5.273438 19.9375 -5.765625 C 21.082031 -6.253906 22.09375 -6.945312 22.96875 -7.84375 C 23.84375 -8.71875 24.519531 -9.726562 25 -10.875 C 25.476562 -12.019531 25.71875 -13.234375 25.71875 -14.515625 C 25.71875 -15.796875 25.476562 -17.007812 25 -18.15625 C 24.519531 -19.3125 23.84375 -20.328125 22.96875 -21.203125 C 22.09375 -22.078125 21.082031 -22.757812 19.9375 -23.25 C 18.789062 -23.738281 17.554688 -23.984375 16.234375 -23.984375 C 14.929688 -23.984375 13.703125 -23.738281 12.546875 -23.25 C 11.398438 -22.757812 10.390625 -22.078125 9.515625 -21.203125 C 8.640625 -20.328125 7.957031 -19.3125 7.46875 -18.15625 C 6.988281 -17.007812 6.75 -15.796875 6.75 -14.515625 C 6.75 -13.234375 6.988281 -12.019531 7.46875 -10.875 C 7.957031 -9.726562 8.640625 -8.71875 9.515625 -7.84375 C 10.390625 -6.945312 11.398438 -6.253906 12.546875 -5.765625 C 13.703125 -5.273438 14.929688 -5.03125 16.234375 -5.03125 Z M 16.234375 -5.03125 "/></g></g></g><g fill="#ffffff" fill-opacity="1"><g transform="translate(323.644542, 195.758901)"><g><path d="M 5.484375 0 C 4.710938 0 4.070312 -0.253906 3.5625 -0.765625 C 3 -1.273438 2.71875 -1.914062 2.71875 -2.6875 L 2.71875 -13.84375 C 2.71875 -15.945312 3.117188 -17.945312 3.921875 -19.84375 C 4.722656 -21.75 5.835938 -23.421875 7.265625 -24.859375 C 8.703125 -26.304688 10.363281 -27.429688 12.25 -28.234375 C 14.132812 -29.035156 16.125 -29.4375 18.21875 -29.4375 L 18.359375 -29.4375 C 19.253906 -29.4375 19.945312 -29.1875 20.4375 -28.6875 C 20.925781 -28.195312 21.171875 -27.550781 21.171875 -26.75 C 21.171875 -25.976562 20.898438 -25.335938 20.359375 -24.828125 C 19.828125 -24.328125 19.160156 -24.078125 18.359375 -24.078125 L 18.21875 -24.078125 C 16.851562 -24.078125 15.5625 -23.8125 14.34375 -23.28125 C 13.125 -22.75 12.046875 -22.015625 11.109375 -21.078125 C 10.148438 -20.117188 9.40625 -19.019531 8.875 -17.78125 C 8.34375 -16.539062 8.078125 -15.226562 8.078125 -13.84375 L 8.078125 -2.6875 C 8.078125 -1.914062 7.828125 -1.273438 7.328125 -0.765625 C 6.835938 -0.253906 6.222656 0 5.484375 0 Z M 5.484375 0 "/></g></g></g><g fill="#ffffff" fill-opacity="1"><g transform="translate(342.990187, 195.758901)"><g><path d="M 16.8125 0 L 4.15625 0 C 3.4375 0 2.84375 -0.253906 2.375 -0.765625 C 1.90625 -1.273438 1.671875 -1.9375 1.671875 -2.75 C 1.671875 -3.539062 1.898438 -4.175781 2.359375 -4.65625 C 2.816406 -5.132812 3.414062 -5.375 4.15625 -5.375 L 16.359375 -5.375 C 16.804688 -5.375 17.25 -5.445312 17.6875 -5.59375 C 18.132812 -5.75 18.546875 -5.976562 18.921875 -6.28125 C 19.734375 -6.957031 20.140625 -7.84375 20.140625 -8.9375 C 20.140625 -10 19.753906 -10.820312 18.984375 -11.40625 C 18.179688 -11.957031 17.316406 -12.242188 16.390625 -12.265625 L 10.703125 -12.265625 C 9.523438 -12.265625 8.414062 -12.5 7.375 -12.96875 C 6.34375 -13.4375 5.429688 -14.085938 4.640625 -14.921875 C 3.867188 -15.710938 3.269531 -16.640625 2.84375 -17.703125 C 2.414062 -18.773438 2.203125 -19.890625 2.203125 -21.046875 C 2.203125 -22.191406 2.425781 -23.273438 2.875 -24.296875 C 3.320312 -25.328125 3.929688 -26.226562 4.703125 -27 C 5.472656 -27.769531 6.375 -28.367188 7.40625 -28.796875 C 8.445312 -29.222656 9.546875 -29.4375 10.703125 -29.4375 L 21.296875 -29.4375 C 22.066406 -29.4375 22.707031 -29.203125 23.21875 -28.734375 C 23.726562 -28.265625 23.984375 -27.625 23.984375 -26.8125 C 23.984375 -26.039062 23.738281 -25.390625 23.25 -24.859375 C 22.738281 -24.316406 22.140625 -24.046875 21.453125 -24.046875 L 10.734375 -24.046875 C 9.878906 -24.046875 9.140625 -23.726562 8.515625 -23.09375 C 7.898438 -22.46875 7.59375 -21.726562 7.59375 -20.875 C 7.59375 -19.9375 7.910156 -19.179688 8.546875 -18.609375 C 9.191406 -18.003906 9.921875 -17.703125 10.734375 -17.703125 L 16.875 -17.703125 C 18.070312 -17.703125 19.207031 -17.46875 20.28125 -17 C 21.363281 -16.53125 22.289062 -15.878906 23.0625 -15.046875 C 23.832031 -14.234375 24.429688 -13.28125 24.859375 -12.1875 C 25.285156 -11.101562 25.5 -9.976562 25.5 -8.8125 C 25.5 -6.332031 24.675781 -4.269531 23.03125 -2.625 C 22.238281 -1.789062 21.304688 -1.144531 20.234375 -0.6875 C 19.171875 -0.226562 18.03125 0 16.8125 0 Z M 16.8125 0 "/></g></g></g><g fill="#00d1d1" fill-opacity="1"><g transform="translate(170.43206, 218.605693)"><g><path d="M 9.5625 0 L 3.75 0 C 3.226562 0 2.816406 -0.132812 2.515625 -0.40625 C 2.210938 -0.6875 2.0625 -1.0625 2.0625 -1.53125 C 2.0625 -2.40625 2.625 -2.84375 3.75 -2.84375 L 10.03125 -2.84375 C 10.394531 -2.851562 10.753906 -2.945312 11.109375 -3.125 C 11.460938 -3.300781 11.78125 -3.539062 12.0625 -3.84375 C 12.363281 -4.144531 12.59375 -4.5 12.75 -4.90625 C 12.914062 -5.3125 13 -5.753906 13 -6.234375 C 13 -7.179688 12.660156 -7.984375 11.984375 -8.640625 C 11.691406 -8.921875 11.359375 -9.132812 10.984375 -9.28125 C 10.609375 -9.425781 10.234375 -9.5 9.859375 -9.5 L 7.234375 -9.5 C 6.390625 -9.5 5.59375 -9.640625 4.84375 -9.921875 C 4.09375 -10.203125 3.441406 -10.597656 2.890625 -11.109375 C 2.304688 -11.628906 1.859375 -12.242188 1.546875 -12.953125 C 1.234375 -13.671875 1.078125 -14.441406 1.078125 -15.265625 C 1.078125 -16.097656 1.234375 -16.898438 1.546875 -17.671875 C 1.867188 -18.453125 2.316406 -19.117188 2.890625 -19.671875 C 3.453125 -20.242188 4.109375 -20.6875 4.859375 -21 C 5.609375 -21.3125 6.398438 -21.46875 7.234375 -21.46875 L 13.015625 -21.46875 C 13.546875 -21.46875 13.957031 -21.34375 14.25 -21.09375 C 14.550781 -20.851562 14.703125 -20.507812 14.703125 -20.0625 C 14.703125 -19.582031 14.550781 -19.210938 14.25 -18.953125 C 13.957031 -18.691406 13.546875 -18.5625 13.015625 -18.5625 L 6.640625 -18.5625 C 5.929688 -18.519531 5.3125 -18.226562 4.78125 -17.6875 C 4.519531 -17.414062 4.3125 -17.082031 4.15625 -16.6875 C 4.007812 -16.289062 3.9375 -15.878906 3.9375 -15.453125 C 3.9375 -15.015625 4.015625 -14.609375 4.171875 -14.234375 C 4.335938 -13.859375 4.5625 -13.519531 4.84375 -13.21875 C 5.101562 -12.9375 5.398438 -12.71875 5.734375 -12.5625 C 6.066406 -12.414062 6.410156 -12.34375 6.765625 -12.34375 L 9.53125 -12.34375 C 10.382812 -12.34375 11.195312 -12.195312 11.96875 -11.90625 C 12.738281 -11.625 13.421875 -11.21875 14.015625 -10.6875 C 14.609375 -10.144531 15.066406 -9.507812 15.390625 -8.78125 C 15.710938 -8.050781 15.875 -7.257812 15.875 -6.40625 C 15.875 -5.539062 15.710938 -4.71875 15.390625 -3.9375 C 15.066406 -3.164062 14.613281 -2.488281 14.03125 -1.90625 C 13.425781 -1.3125 12.742188 -0.84375 11.984375 -0.5 C 11.222656 -0.164062 10.414062 0 9.5625 0 Z M 9.5625 0 "/></g></g></g><g fill="#00d1d1" fill-opacity="1"><g transform="translate(186.034782, 218.605693)"><g><path d="M 3.125 -17.640625 C 2.675781 -17.640625 2.289062 -17.800781 1.96875 -18.125 C 1.644531 -18.457031 1.484375 -18.835938 1.484375 -19.265625 C 1.484375 -19.710938 1.644531 -20.097656 1.96875 -20.421875 C 2.28125 -20.742188 2.664062 -20.90625 3.125 -20.90625 C 3.550781 -20.90625 3.9375 -20.742188 4.28125 -20.421875 C 4.601562 -20.117188 4.765625 -19.734375 4.765625 -19.265625 C 4.765625 -18.828125 4.601562 -18.445312 4.28125 -18.125 C 3.945312 -17.800781 3.5625 -17.640625 3.125 -17.640625 Z M 3.125 0.109375 C 2.726562 0.109375 2.382812 -0.0234375 2.09375 -0.296875 C 1.800781 -0.578125 1.65625 -0.914062 1.65625 -1.3125 L 1.65625 -14.265625 C 1.65625 -14.679688 1.800781 -15.023438 2.09375 -15.296875 C 2.382812 -15.578125 2.734375 -15.71875 3.140625 -15.71875 C 3.535156 -15.71875 3.867188 -15.578125 4.140625 -15.296875 C 4.410156 -15.015625 4.546875 -14.671875 4.546875 -14.265625 L 4.546875 -1.3125 C 4.546875 -0.914062 4.40625 -0.578125 4.125 -0.296875 C 3.851562 -0.0234375 3.519531 0.109375 3.125 0.109375 Z M 3.125 0.109375 "/></g></g></g><g fill="#00d1d1" fill-opacity="1"><g transform="translate(190.937745, 218.605693)"><g><path d="M 8.96875 0 L 2.21875 0 C 1.832031 0 1.515625 -0.132812 1.265625 -0.40625 C 1.015625 -0.675781 0.890625 -1.03125 0.890625 -1.46875 C 0.890625 -1.882812 1.007812 -2.21875 1.25 -2.46875 C 1.5 -2.726562 1.820312 -2.859375 2.21875 -2.859375 L 8.734375 -2.859375 C 8.972656 -2.859375 9.210938 -2.898438 9.453125 -2.984375 C 9.691406 -3.066406 9.90625 -3.191406 10.09375 -3.359375 C 10.53125 -3.710938 10.75 -4.179688 10.75 -4.765625 C 10.75 -5.335938 10.539062 -5.78125 10.125 -6.09375 C 9.707031 -6.382812 9.25 -6.535156 8.75 -6.546875 L 5.71875 -6.546875 C 5.082031 -6.546875 4.488281 -6.671875 3.9375 -6.921875 C 3.382812 -7.171875 2.894531 -7.519531 2.46875 -7.96875 C 2.0625 -8.382812 1.742188 -8.878906 1.515625 -9.453125 C 1.285156 -10.023438 1.171875 -10.617188 1.171875 -11.234375 C 1.171875 -11.847656 1.289062 -12.425781 1.53125 -12.96875 C 1.769531 -13.519531 2.097656 -14.003906 2.515625 -14.421875 C 2.921875 -14.828125 3.398438 -15.144531 3.953125 -15.375 C 4.503906 -15.601562 5.09375 -15.71875 5.71875 -15.71875 L 11.375 -15.71875 C 11.78125 -15.71875 12.117188 -15.59375 12.390625 -15.34375 C 12.660156 -15.09375 12.796875 -14.75 12.796875 -14.3125 C 12.796875 -13.90625 12.664062 -13.5625 12.40625 -13.28125 C 12.132812 -12.976562 11.816406 -12.828125 11.453125 -12.828125 L 5.734375 -12.828125 C 5.273438 -12.828125 4.878906 -12.660156 4.546875 -12.328125 C 4.222656 -11.992188 4.0625 -11.597656 4.0625 -11.140625 C 4.0625 -10.640625 4.226562 -10.238281 4.5625 -9.9375 C 4.90625 -9.613281 5.296875 -9.453125 5.734375 -9.453125 L 9 -9.453125 C 9.644531 -9.453125 10.253906 -9.328125 10.828125 -9.078125 C 11.410156 -8.828125 11.90625 -8.476562 12.3125 -8.03125 C 12.726562 -7.59375 13.050781 -7.082031 13.28125 -6.5 C 13.507812 -5.925781 13.625 -5.328125 13.625 -4.703125 C 13.625 -3.378906 13.179688 -2.28125 12.296875 -1.40625 C 11.867188 -0.957031 11.367188 -0.609375 10.796875 -0.359375 C 10.234375 -0.117188 9.625 0 8.96875 0 Z M 8.96875 0 "/></g></g></g><g fill="#00d1d1" fill-opacity="1"><g transform="translate(203.967312, 218.605693)"><g><path d="M 9.4375 0.203125 C 8.332031 0.203125 7.296875 0.00390625 6.328125 -0.390625 C 5.367188 -0.796875 4.523438 -1.351562 3.796875 -2.0625 C 3.054688 -2.789062 2.476562 -3.632812 2.0625 -4.59375 C 1.65625 -5.550781 1.453125 -6.570312 1.453125 -7.65625 L 1.453125 -18.96875 C 1.453125 -19.375 1.597656 -19.722656 1.890625 -20.015625 C 2.171875 -20.296875 2.507812 -20.4375 2.90625 -20.4375 C 3.300781 -20.4375 3.648438 -20.296875 3.953125 -20.015625 C 4.242188 -19.722656 4.390625 -19.375 4.390625 -18.96875 L 4.390625 -15.78125 L 10.859375 -15.78125 C 11.265625 -15.78125 11.609375 -15.632812 11.890625 -15.34375 C 12.171875 -15.0625 12.3125 -14.71875 12.3125 -14.3125 C 12.3125 -13.925781 12.171875 -13.597656 11.890625 -13.328125 C 11.617188 -13.066406 11.273438 -12.9375 10.859375 -12.9375 L 4.390625 -12.9375 L 4.390625 -7.625 C 4.390625 -6.9375 4.515625 -6.289062 4.765625 -5.6875 C 5.023438 -5.082031 5.390625 -4.554688 5.859375 -4.109375 C 6.316406 -3.648438 6.851562 -3.296875 7.46875 -3.046875 C 8.082031 -2.796875 8.738281 -2.671875 9.4375 -2.671875 C 10.757812 -2.671875 11.84375 -3.0625 12.6875 -3.84375 C 13.03125 -4.164062 13.394531 -4.328125 13.78125 -4.328125 C 14.101562 -4.328125 14.40625 -4.203125 14.6875 -3.953125 C 14.945312 -3.691406 15.078125 -3.375 15.078125 -3 C 15.078125 -2.519531 14.90625 -2.109375 14.5625 -1.765625 C 13.195312 -0.453125 11.488281 0.203125 9.4375 0.203125 Z M 9.4375 0.203125 "/></g></g></g><g fill="#00d1d1" fill-opacity="1"><g transform="translate(218.088033, 218.605693)"><g><path d="M 8.703125 0.203125 C 7.617188 0.203125 6.585938 -0.00390625 5.609375 -0.421875 C 4.640625 -0.835938 3.789062 -1.410156 3.0625 -2.140625 C 2.320312 -2.859375 1.742188 -3.703125 1.328125 -4.671875 C 0.921875 -5.648438 0.71875 -6.675781 0.71875 -7.75 C 0.71875 -8.832031 0.921875 -9.859375 1.328125 -10.828125 C 1.742188 -11.804688 2.320312 -12.660156 3.0625 -13.390625 C 3.789062 -14.117188 4.640625 -14.6875 5.609375 -15.09375 C 6.585938 -15.507812 7.617188 -15.71875 8.703125 -15.71875 C 9.765625 -15.71875 10.78125 -15.515625 11.75 -15.109375 C 12.71875 -14.703125 13.570312 -14.132812 14.3125 -13.40625 C 15.039062 -12.675781 15.613281 -11.828125 16.03125 -10.859375 C 16.445312 -9.898438 16.664062 -8.882812 16.6875 -7.8125 C 16.6875 -7.425781 16.550781 -7.101562 16.28125 -6.84375 C 16.019531 -6.582031 15.6875 -6.453125 15.28125 -6.453125 L 3.90625 -6.453125 C 4.03125 -5.898438 4.238281 -5.390625 4.53125 -4.921875 C 4.820312 -4.453125 5.179688 -4.039062 5.609375 -3.6875 C 6.492188 -2.945312 7.523438 -2.578125 8.703125 -2.578125 C 9.242188 -2.578125 9.703125 -2.625 10.078125 -2.71875 C 10.453125 -2.8125 10.828125 -2.972656 11.203125 -3.203125 C 11.503906 -3.378906 11.789062 -3.46875 12.0625 -3.46875 C 12.4375 -3.46875 12.769531 -3.320312 13.0625 -3.03125 C 13.34375 -2.726562 13.484375 -2.375 13.484375 -1.96875 C 13.484375 -1.3125 13.003906 -0.78125 12.046875 -0.375 C 11.617188 -0.1875 11.113281 -0.046875 10.53125 0.046875 C 9.945312 0.148438 9.335938 0.203125 8.703125 0.203125 Z M 3.828125 -8.859375 L 13.734375 -8.859375 C 13.523438 -10.054688 12.957031 -11.035156 12.03125 -11.796875 C 11.59375 -12.160156 11.085938 -12.445312 10.515625 -12.65625 C 9.953125 -12.863281 9.363281 -12.96875 8.75 -12.96875 C 7.457031 -12.96875 6.363281 -12.570312 5.46875 -11.78125 C 5.039062 -11.40625 4.679688 -10.960938 4.390625 -10.453125 C 4.109375 -9.953125 3.921875 -9.421875 3.828125 -8.859375 Z M 3.828125 -8.859375 "/></g></g></g><g fill="#00d1d1" fill-opacity="1"><g transform="translate(234.146759, 218.605693)"><g><path d="M 2.984375 0 C 2.578125 0 2.234375 -0.132812 1.953125 -0.40625 C 1.671875 -0.675781 1.53125 -1.019531 1.53125 -1.4375 L 1.53125 -10.84375 C 1.53125 -11.5625 1.664062 -12.242188 1.9375 -12.890625 C 2.21875 -13.546875 2.609375 -14.125 3.109375 -14.625 C 3.597656 -15.113281 4.164062 -15.492188 4.8125 -15.765625 C 5.457031 -16.046875 6.144531 -16.1875 6.875 -16.1875 C 7.632812 -16.1875 8.347656 -16.035156 9.015625 -15.734375 C 9.691406 -15.429688 10.285156 -15.015625 10.796875 -14.484375 C 11.296875 -15.015625 11.878906 -15.429688 12.546875 -15.734375 C 13.222656 -16.035156 13.941406 -16.1875 14.703125 -16.1875 C 15.429688 -16.1875 16.125 -16.046875 16.78125 -15.765625 C 17.445312 -15.492188 18.035156 -15.113281 18.546875 -14.625 C 19.046875 -14.125 19.441406 -13.546875 19.734375 -12.890625 C 20.023438 -12.234375 20.171875 -11.550781 20.171875 -10.84375 L 20.171875 -1.4375 C 20.171875 -1.019531 20.03125 -0.675781 19.75 -0.40625 C 19.46875 -0.132812 19.128906 0 18.734375 0 C 18.328125 0 17.984375 -0.132812 17.703125 -0.40625 C 17.429688 -0.675781 17.296875 -1.019531 17.296875 -1.4375 L 17.296875 -10.765625 C 17.285156 -11.085938 17.210938 -11.398438 17.078125 -11.703125 C 16.941406 -12.003906 16.753906 -12.273438 16.515625 -12.515625 C 16.273438 -12.742188 16 -12.914062 15.6875 -13.03125 C 15.375 -13.15625 15.050781 -13.21875 14.71875 -13.21875 C 14.082031 -13.21875 13.523438 -13 13.046875 -12.5625 C 12.566406 -12.113281 12.304688 -11.570312 12.265625 -10.9375 C 12.273438 -10.914062 12.28125 -10.847656 12.28125 -10.734375 L 12.28125 -1.46875 C 12.28125 -1.0625 12.140625 -0.71875 11.859375 -0.4375 C 11.578125 -0.15625 11.238281 -0.015625 10.84375 -0.015625 C 10.445312 -0.015625 10.109375 -0.15625 9.828125 -0.4375 C 9.554688 -0.71875 9.421875 -1.0625 9.421875 -1.46875 L 9.421875 -10.65625 C 9.421875 -11.375 9.1875 -11.984375 8.71875 -12.484375 C 8.207031 -12.992188 7.609375 -13.25 6.921875 -13.25 C 6.296875 -13.25 5.742188 -13.035156 5.265625 -12.609375 C 4.785156 -12.191406 4.503906 -11.675781 4.421875 -11.0625 C 4.429688 -11.007812 4.4375 -10.957031 4.4375 -10.90625 C 4.445312 -10.863281 4.453125 -10.828125 4.453125 -10.796875 L 4.390625 -1.4375 C 4.390625 -1.019531 4.25 -0.675781 3.96875 -0.40625 C 3.695312 -0.132812 3.367188 0 2.984375 0 Z M 2.984375 0 "/></g></g></g><g fill="#00d1d1" fill-opacity="1"><g transform="translate(254.276932, 218.605693)"><g><path d="M 8.671875 0.203125 C 7.585938 0.203125 6.566406 0 5.609375 -0.40625 C 4.660156 -0.820312 3.820312 -1.398438 3.09375 -2.140625 C 2.363281 -2.859375 1.796875 -3.703125 1.390625 -4.671875 C 0.984375 -5.640625 0.78125 -6.664062 0.78125 -7.75 C 0.78125 -8.832031 0.984375 -9.859375 1.390625 -10.828125 C 1.796875 -11.796875 2.363281 -12.648438 3.09375 -13.390625 C 3.820312 -14.128906 4.660156 -14.703125 5.609375 -15.109375 C 6.566406 -15.515625 7.585938 -15.71875 8.671875 -15.71875 C 9.742188 -15.71875 10.753906 -15.515625 11.703125 -15.109375 C 12.648438 -14.710938 13.488281 -14.148438 14.21875 -13.421875 C 14.9375 -12.691406 15.5 -11.847656 15.90625 -10.890625 C 16.3125 -9.941406 16.523438 -8.925781 16.546875 -7.84375 L 16.546875 -1.375 C 16.546875 -0.957031 16.40625 -0.601562 16.125 -0.3125 C 15.84375 -0.03125 15.492188 0.109375 15.078125 0.109375 C 14.671875 0.109375 14.335938 -0.03125 14.078125 -0.3125 C 13.816406 -0.59375 13.6875 -0.945312 13.6875 -1.375 L 13.671875 -1.59375 C 12.972656 -1.019531 12.195312 -0.578125 11.34375 -0.265625 C 10.488281 0.046875 9.597656 0.203125 8.671875 0.203125 Z M 8.671875 -2.6875 C 9.367188 -2.6875 10.019531 -2.816406 10.625 -3.078125 C 11.238281 -3.335938 11.78125 -3.707031 12.25 -4.1875 C 12.707031 -4.65625 13.0625 -5.195312 13.3125 -5.8125 C 13.5625 -6.425781 13.6875 -7.070312 13.6875 -7.75 C 13.6875 -8.4375 13.5625 -9.085938 13.3125 -9.703125 C 13.0625 -10.316406 12.707031 -10.859375 12.25 -11.328125 C 11.78125 -11.785156 11.238281 -12.144531 10.625 -12.40625 C 10.007812 -12.664062 9.359375 -12.796875 8.671875 -12.796875 C 7.972656 -12.796875 7.316406 -12.664062 6.703125 -12.40625 C 6.097656 -12.144531 5.566406 -11.785156 5.109375 -11.328125 C 4.660156 -10.859375 4.304688 -10.316406 4.046875 -9.703125 C 3.796875 -9.085938 3.671875 -8.4375 3.671875 -7.75 C 3.671875 -7.070312 3.796875 -6.425781 4.046875 -5.8125 C 4.304688 -5.195312 4.660156 -4.65625 5.109375 -4.1875 C 5.566406 -3.707031 6.097656 -3.335938 6.703125 -3.078125 C 7.316406 -2.816406 7.972656 -2.6875 8.671875 -2.6875 Z M 8.671875 -2.6875 "/></g></g></g><path fill="#00d1d1" d="M 36.011719 215.824219 C 36.027344 215.652344 36.050781 215.484375 36.054688 215.3125 C 36.226562 212.722656 36.183594 209.65625 35.5625 206.644531 L 35.5625 206.621094 C 33.945312 208.171875 32.226562 209.761719 30.363281 211.414062 C 30.304688 207.464844 29.144531 204.265625 26.96875 202.089844 L 26.96875 202.082031 C 26.960938 202.082031 26.960938 202.082031 26.960938 202.082031 C 24.78125 199.902344 21.585938 198.746094 17.632812 198.683594 C 19.289062 196.824219 20.875 195.105469 22.425781 193.488281 L 22.402344 193.488281 C 19.390625 192.867188 16.328125 192.816406 13.726562 192.992188 C 13.566406 193 13.394531 193.023438 13.226562 193.035156 C 21.015625 185.253906 27.691406 185.570312 30.066406 186.015625 C 49.15625 168.671875 58.140625 170.90625 58.140625 170.90625 C 58.140625 170.90625 60.378906 179.894531 43.035156 198.980469 C 43.476562 201.359375 43.792969 208.03125 36.011719 215.824219 Z M 66.351562 158.546875 C 52.257812 146.4375 31.125 146.402344 17 158.472656 C 2.976562 170.449219 0.00390625 190.007812 8.058594 205.21875 C 10.5 209.84375 17.035156 210.160156 20.054688 205.882812 L 20.0625 205.875 L 16.246094 202.066406 C 16.253906 202.058594 16.246094 202.058594 16.253906 202.058594 C 18.792969 201.859375 22.417969 202.066406 24.699219 204.347656 C 26.980469 206.628906 27.1875 210.253906 26.988281 212.796875 C 26.988281 212.796875 26.980469 212.796875 26.980469 212.800781 L 23.171875 208.984375 C 18.859375 212.035156 19.257812 218.589844 23.933594 221.042969 C 38.273438 228.589844 56.457031 226.335938 68.5 214.292969 C 84.003906 198.789062 83.289062 173.117188 66.351562 158.546875 " fill-opacity="1" fill-rule="nonzero"/><path fill="#00d1d1" d="M 45.136719 188.148438 C 43.972656 189.316406 42.074219 189.316406 40.898438 188.148438 C 39.734375 186.976562 39.734375 185.078125 40.898438 183.910156 C 42.074219 182.738281 43.972656 182.738281 45.136719 183.910156 C 46.3125 185.078125 46.3125 186.976562 45.136719 188.148438 " fill-opacity="1" fill-rule="nonzero"/></svg>